<?xml version="1.0" standalone="no"?>
<!DOCTYPE svg PUBLIC "-//W3C//DTD SVG 20010904//EN"
 "http://www.w3.org/TR/2001/REC-SVG-20010904/DTD/svg10.dtd">
<svg version="1.0" xmlns="http://www.w3.org/2000/svg"
 width="512.000000pt" height="512.000000pt" viewBox="0 0 512.000000 512.000000"
 preserveAspectRatio="xMidYMid meet">
<metadata>
Created by potrace 1.14, written by Peter Selinger 2001-2017
</metadata>
<g transform="translate(0.000000,512.000000) scale(0.100000,-0.100000)"
fill="#000000" stroke="none">
<path d="M0 2560 l0 -2560 2560 0 2560 0 0 2560 0 2560 -2560 0 -2560 0 0
-2560z m2659 2518 c31 -17 63 -36 71 -43 8 -7 44 -27 80 -46 36 -19 67 -36 70
-39 3 -3 59 -37 125 -75 66 -38 179 -103 250 -145 72 -42 200 -117 285 -166
85 -48 157 -91 160 -94 3 -3 34 -21 70 -39 36 -19 71 -39 79 -45 8 -6 125 -75
260 -152 l246 -142 6 -99 c4 -54 7 -189 8 -299 1 -160 -2 -204 -13 -213 -7 -6
-44 -28 -82 -49 -88 -47 -143 -79 -305 -173 l-131 -77 48 -28 c27 -15 113 -65
190 -111 78 -46 147 -83 153 -83 6 0 11 -3 11 -7 0 -5 29 -24 65 -42 l65 -35
0 -906 0 -906 -242 -139 c-134 -76 -351 -201 -483 -278 -132 -77 -301 -174
-375 -217 -74 -43 -206 -119 -292 -169 -86 -50 -174 -100 -195 -112 -21 -12
-79 -46 -129 -75 -50 -29 -99 -56 -108 -60 -14 -6 -16 14 -16 202 0 115 -3
253 -7 306 -6 95 -7 97 -34 109 -16 6 -29 15 -29 19 0 4 -8 10 -17 13 -19 7
-32 14 -320 182 -103 60 -197 115 -208 121 -11 6 -82 48 -158 92 -76 45 -140
82 -143 82 -3 0 -17 8 -32 19 -15 10 -61 37 -102 61 -41 24 -112 65 -157 92
-46 27 -113 66 -150 87 -146 82 -369 211 -385 224 -17 13 -16 15 10 27 15 8
33 19 41 25 7 5 42 26 77 45 34 19 130 74 213 122 l151 88 128 -74 c70 -40
172 -100 227 -132 55 -33 107 -63 115 -67 8 -4 22 -11 30 -17 32 -21 201 -120
205 -120 2 0 48 -26 102 -58 100 -60 314 -185 391 -229 l43 -25 -1 914 -1 914
-57 32 c-123 69 -159 90 -226 130 -37 23 -70 42 -72 42 -3 0 -190 108 -224
130 -8 5 -37 22 -65 38 -221 127 -330 191 -391 228 -39 24 -73 44 -77 44 -3 0
-42 23 -86 50 -44 28 -83 50 -85 50 -4 0 -303 173 -429 247 l-47 28 212 124
c117 67 229 132 248 143 19 12 98 57 175 101 77 44 165 95 195 112 112 66 527
304 575 331 27 15 73 42 102 61 29 18 54 33 56 33 2 0 62 34 132 75 71 41 133
75 138 75 5 0 35 -14 66 -32z"/>
<path d="M3535 1796 c-24 -16 -263 -155 -320 -186 -22 -12 -66 -38 -99 -58
l-59 -35 23 -17 c13 -10 47 -30 77 -46 30 -16 62 -34 71 -39 9 -6 51 -30 92
-54 41 -24 112 -65 156 -92 45 -27 87 -49 93 -49 8 0 11 83 11 295 0 312 0
310 -45 281z"/>
</g>
</svg>
